<?xml version="1.0" standalone="no"?>
<!DOCTYPE svg PUBLIC "-//W3C//DTD SVG 20010904//EN"
 "http://www.w3.org/TR/2001/REC-SVG-20010904/DTD/svg10.dtd">
<svg version="1.0" xmlns="http://www.w3.org/2000/svg"
 width="1280.000000pt" height="1280.000000pt" viewBox="0 0 1280.000000 1280.000000"
 preserveAspectRatio="xMidYMid meet">
<metadata>
Created by potrace 1.15, written by Peter Selinger 2001-2017
</metadata>
<g transform="translate(0.000000,1280.000000) scale(0.100000,-0.100000)"
fill="#000000" stroke="none">
<path d="M5140 12623 c-494 -39 -789 -172 -1131 -513 -69 -69 -160 -168 -201
-220 -287 -362 -526 -857 -638 -1323 -25 -105 -36 -169 -65 -390 l-5 -38 437
7 c241 4 439 7 440 8 0 0 8 42 17 91 87 508 340 1003 647 1272 205 178 380
258 599 270 l105 6 -3 -564 c-2 -321 4 -924 14 -1399 16 -812 14 -1905 -4
-2200 l-7 -105 -195 -8 c-107 -4 -459 -6 -782 -3 l-587 6 -13 -38 c-15 -44
-18 -391 -5 -622 l9 -145 1176 0 1177 0 3 2900 4 2900 -24 22 c-59 56 -354 94
-701 91 -122 -1 -242 -3 -267 -5z"/>
<path d="M7240 12594 c-107 -16 -230 -38 -239 -43 -15 -10 -28 -117 -40 -331
-32 -553 -47 -1293 -36 -1700 l7 -275 394 -2 393 -2 4 752 c2 425 8 767 13
787 9 31 14 35 45 38 93 8 235 -83 420 -268 199 -198 364 -430 547 -765 284
-520 507 -1235 587 -1885 22 -177 32 -732 16 -936 -6 -81 -10 -148 -9 -149 5
-4 769 -27 773 -23 7 7 -15 667 -30 893 -62 967 -201 1717 -408 2200 -152 355
-270 561 -451 785 -81 100 -291 309 -396 393 -439 353 -950 541 -1447 536 -65
-1 -129 -3 -143 -5z"/>
<path d="M7548 10053 l-1238 -3 0 -118 c0 -65 3 -240 7 -389 l6 -270 876 -7
c482 -3 1109 -9 1394 -12 l517 -7 0 36 c0 106 -77 378 -190 670 l-41 107 -47
-2 c-26 -2 -604 -4 -1284 -5z"/>
<path d="M5085 10044 c-16 -2 -257 -13 -535 -24 -803 -33 -1080 -53 -1483
-111 -442 -63 -778 -144 -1117 -271 -340 -127 -575 -273 -795 -493 -98 -98
-284 -335 -380 -483 -55 -86 -170 -313 -215 -427 -111 -277 -194 -610 -221
-885 -19 -203 5 -632 37 -644 57 -22 1008 -46 1820 -46 l441 0 6 98 c4 53 7
233 7 400 l0 302 -786 0 -785 0 7 23 c14 45 96 225 146 317 106 200 224 364
368 514 382 398 879 639 1605 780 414 81 974 131 1681 152 l231 7 7 226 c3
124 9 304 12 399 6 143 4 172 -7 170 -8 0 -27 -3 -44 -4z"/>
<path d="M10124 9742 c21 -176 46 -448 51 -545 3 -62 8 -135 11 -163 l5 -51
73 -7 c359 -32 831 -281 1161 -611 161 -161 274 -315 364 -493 50 -99 104
-232 98 -238 -2 -2 -117 1 -257 6 -947 34 -1882 50 -2966 50 l-951 0 -7 503
c-3 276 -9 601 -12 722 l-6 220 -322 -2 c-176 -2 -350 -6 -384 -9 l-64 -6 6
-46 c13 -109 18 -966 7 -1367 -6 -236 -8 -510 -4 -607 l6 -178 416 0 c537 -1
1169 -13 2286 -46 1017 -30 2113 -38 2430 -16 328 22 484 35 495 42 13 8 36
187 45 350 39 724 -321 1451 -952 1924 -383 287 -909 507 -1457 609 l-79 15 7
-56z"/>
<path d="M3275 8866 l-390 -83 -3 -1291 c-1 -711 -1 -1292 1 -1292 1 0 18 5
37 11 19 6 150 14 290 19 256 9 379 23 385 44 2 6 9 171 15 366 6 195 24 785
40 1310 34 1092 32 1000 23 999 -5 -1 -183 -38 -398 -83z"/>
<path d="M9313 6724 c-3 -9 -2 -483 3 -1053 5 -570 9 -1246 9 -1504 l0 -467
50 0 c78 0 310 28 418 51 100 21 292 82 315 101 9 8 12 305 10 1447 l-3 1436
-398 3 c-362 2 -398 1 -404 -14z"/>
<path d="M247 5644 c-16 -389 -16 -403 3 -564 35 -300 96 -584 161 -748 213
-538 748 -929 1699 -1243 198 -65 629 -189 657 -189 11 0 13 71 11 428 l-3
427 -120 6 c-529 29 -995 254 -1292 624 -176 220 -287 491 -309 756 l-7 82 34
-6 c19 -4 340 -9 714 -13 652 -6 867 -3 1775 26 157 6 627 13 1044 17 l759 6
-7 -44 c-17 -99 -22 -343 -13 -669 5 -190 9 -482 10 -650 l2 -305 320 2 c323
3 468 12 488 32 16 16 14 1365 -2 1711 -14 297 -32 481 -53 545 l-13 40 -90 6
c-262 19 -1029 29 -2535 34 -921 3 -1812 10 -1980 15 -377 12 -926 43 -1170
66 l-66 6 -17 -398z"/>
<path d="M7877 6025 c-483 -7 -880 -15 -882 -17 -3 -3 0 -232 6 -509 12 -533
7 -1709 -11 -2504 -5 -247 -17 -794 -25 -1215 -14 -722 -27 -1149 -41 -1462
l-7 -136 69 -9 c38 -4 168 -8 289 -7 181 0 240 4 335 22 896 168 1671 854
2090 1852 80 189 200 577 200 645 0 18 21 20 -350 -40 -403 -66 -414 -68 -483
-63 l-64 4 -73 -161 c-185 -403 -317 -649 -486 -906 -134 -204 -242 -340 -373
-469 -136 -134 -258 -207 -380 -226 l-43 -7 6 54 c4 30 11 704 16 1499 6 795
15 1582 20 1750 17 528 39 921 59 1035 l7 40 219 7 c121 4 299 12 395 18 96 6
302 14 457 17 l281 6 6 66 c3 36 13 190 21 341 8 151 17 301 20 333 l6 57
-203 -2 c-112 0 -598 -7 -1081 -13z"/>
<path d="M10306 5848 c3 -106 9 -301 13 -433 l6 -240 455 1 c250 0 585 3 744
7 l288 8 -7 -93 c-23 -316 -101 -536 -261 -736 -84 -106 -230 -243 -345 -324
-107 -77 -316 -187 -464 -246 -501 -199 -1220 -312 -2220 -352 -148 -6 -328
-15 -400 -20 -71 -6 -144 -10 -162 -10 -27 0 -33 -5 -41 -32 -6 -18 -13 -157
-16 -308 -5 -260 -12 -326 -41 -394 -8 -19 -1 -19 301 -13 1109 23 2080 198
2909 524 552 218 933 514 1171 909 241 402 404 1118 366 1610 -11 144 -30 246
-48 264 -5 4 -58 14 -119 22 -85 10 -319 13 -1015 13 -884 0 -947 2 -1093 31
l-28 6 7 -194z"/>
<path d="M3175 5049 c-192 -9 -351 -18 -352 -18 -11 -4 8 -612 27 -916 68
-1045 276 -1915 630 -2640 122 -248 325 -583 466 -766 238 -311 846 -556 1510
-610 176 -14 421 -7 549 16 122 21 123 22 131 58 12 48 7 463 -10 819 -31 629
-39 919 -33 1190 l5 276 -36 -15 c-31 -13 -73 -15 -242 -12 -300 6 -390 3
-435 -13 l-40 -15 0 -767 0 -767 -60 6 c-33 4 -103 15 -156 26 -289 57 -491
170 -709 395 -309 321 -499 761 -630 1462 -81 436 -123 874 -160 1674 -11 241
-23 483 -26 538 l-7 100 -36 -1 c-20 -1 -193 -10 -386 -20z"/>
<path d="M3954 3434 c3 -27 22 -215 42 -419 19 -203 36 -370 37 -371 1 -1 604
-4 1339 -8 l1337 -7 15 52 c13 43 16 111 16 358 0 168 4 333 10 365 5 33 9 61
7 62 -1 1 -634 5 -1406 9 l-1403 8 6 -49z"/>
</g>
</svg>
