<?xml version="1.0" encoding="UTF-8" standalone="no" ?>
<!DOCTYPE svg PUBLIC "-//W3C//DTD SVG 1.1//EN" "http://www.w3.org/Graphics/SVG/1.1/DTD/svg11.dtd">
<svg xmlns="http://www.w3.org/2000/svg" xmlns:xlink="http://www.w3.org/1999/xlink" version="1.1" width="400" height="400" viewBox="0 0 400 400" xml:space="preserve">
<desc>Created with Fabric.js 3.6.2</desc>
<defs>
</defs>
<g transform="matrix(0.39 0 0 0.39 200 200)" id="Layer_1"  >
<path style="stroke: none; stroke-width: 1; stroke-dasharray: none; stroke-linecap: butt; stroke-dashoffset: 0; stroke-linejoin: miter; stroke-miterlimit: 4; fill: rgb(205,205,205); fill-rule: nonzero; opacity: 1;"  transform=" translate(-256, -256)" d="M 256 0 C 114.615 0 0 114.615 0 256 S 114.615 512 256 512 S 512 397.385 512 256 S 397.385 0 256 0 Z m 67.59 153.428 s -26.194 -2.064 -36.513 1.746 c -17.056 6.3 -17.462 21.034 -17.462 35.084 v 28.694 h 52.149 l -7.62 54.888 H 269.615 V 409.333 h -58.9 V 273.84 H 161.744 V 218.952 h 48.974 V 172.4 c 0 -49.292 37.942 -67.151 60.563 -69.294 s 52.309 4.286 52.309 4.286 Z" stroke-linecap="round" />
</g>
</svg>