<?xml version="1.0" encoding="UTF-8" standalone="no" ?>
<!DOCTYPE svg PUBLIC "-//W3C//DTD SVG 1.1//EN" "http://www.w3.org/Graphics/SVG/1.1/DTD/svg11.dtd">
<svg xmlns="http://www.w3.org/2000/svg" xmlns:xlink="http://www.w3.org/1999/xlink" version="1.1" width="400" height="400" viewBox="0 0 400 400" xml:space="preserve">
<desc>Created with Fabric.js 3.6.2</desc>
<defs>
</defs>
<g transform="matrix(0.39 0 0 0.39 200 200)" id="Layer_1"  >
<path style="stroke: none; stroke-width: 1; stroke-dasharray: none; stroke-linecap: butt; stroke-dashoffset: 0; stroke-linejoin: miter; stroke-miterlimit: 4; fill: rgb(205,205,205); fill-rule: nonzero; opacity: 1;"  transform=" translate(-256, -256)" d="M 256 0 C 114.615 0 0 114.615 0 256 S 114.615 512 256 512 S 512 397.385 512 256 S 397.385 0 256 0 Z M 367.915 198.646 c 0.3 19.091 -2.227 114.546 -92.824 155.909 S 116 344.374 116 344.374 c 50.676 4.772 83.915 -23.864 83.915 -23.864 c -41.046 -1.75 -52.978 -39.932 -52.978 -39.932 c 14.637 2.546 24.765 -1.538 24.765 -1.538 c -45.817 -12.3 -44.651 -56.848 -44.651 -56.848 c 13.045 7.742 24.5 6.363 24.5 6.363 c -42.424 -30.545 -16.46 -76.045 -16.46 -76.045 c 47.727 58.864 119.22 60.506 119.22 60.506 a 67.027 67.027 0 0 1 -1.493 -14.37 c 0 -38.181 33.642 -57.272 57.273 -57.272 s 41.119 17.818 41.119 17.818 c 17.978 -0.8 37.228 -13.046 37.228 -13.046 c -7.637 23.228 -23.7 31.819 -23.7 31.819 c 14.557 -1.591 31.267 -8.91 31.267 -8.91 C 390.358 181.465 367.915 198.646 367.915 198.646 Z" stroke-linecap="round" />
</g>
</svg>