<?xml version="1.0" encoding="UTF-8" standalone="no" ?>
<!DOCTYPE svg PUBLIC "-//W3C//DTD SVG 1.1//EN" "http://www.w3.org/Graphics/SVG/1.1/DTD/svg11.dtd">
<svg xmlns="http://www.w3.org/2000/svg" xmlns:xlink="http://www.w3.org/1999/xlink" version="1.1" width="400" height="400" viewBox="0 0 400 400" xml:space="preserve">
<desc>Created with Fabric.js 3.6.2</desc>
<defs>
</defs>
<g transform="matrix(3.33 0 0 3.33 200 200)" id="Layer_1"  >
<path style="stroke: none; stroke-width: 1; stroke-dasharray: none; stroke-linecap: butt; stroke-dashoffset: 0; stroke-linejoin: miter; stroke-miterlimit: 4; fill: rgb(205,205,205); fill-rule: evenodd; opacity: 1;"  transform=" translate(-33, -34)" d="M 42.527 41.34 c -0.278 0 -0.478 0.078 -0.6 0.244 c -0.121 0.156 -0.18 0.424 -0.18 0.796 v 0.896 h 1.543 V 42.38 c 0 -0.372 -0.062 -0.64 -0.185 -0.796 C 42.989 41.418 42.792 41.34 42.527 41.34 z M 36.509 41.309 c 0.234 0 0.417 0.076 0.544 0.23 c 0.123 0.154 0.185 0.383 0.185 0.682 v 4.584 c 0 0.286 -0.053 0.487 -0.153 0.611 c -0.1 0.127 -0.256 0.189 -0.47 0.189 c -0.148 0 -0.287 -0.033 -0.421 -0.096 c -0.135 -0.062 -0.274 -0.171 -0.415 -0.313 v -5.531 c 0.119 -0.122 0.239 -0.213 0.36 -0.271 C 36.26 41.335 36.383 41.309 36.509 41.309 z M 41.748 44.658 v 1.672 c 0 0.468 0.057 0.792 0.17 0.974 c 0.118 0.181 0.313 0.269 0.592 0.269 c 0.289 0 0.491 -0.076 0.606 -0.229 c 0.114 -0.153 0.175 -0.489 0.175 -1.013 v -0.405 h 1.795 v 0.456 c 0 0.911 -0.217 1.596 -0.657 2.059 c -0.435 0.459 -1.089 0.687 -1.958 0.687 c -0.781 0 -1.398 -0.242 -1.847 -0.731 c -0.448 -0.486 -0.676 -1.157 -0.676 -2.014 v -3.986 c 0 -0.768 0.249 -1.398 0.742 -1.882 c 0.493 -0.485 1.128 -0.727 1.911 -0.727 c 0.799 0 1.413 0.225 1.843 0.674 c 0.429 0.448 0.642 1.093 0.642 1.935 v 2.264 H 41.748 z M 38.623 48.495 c -0.271 0.336 -0.669 0.501 -1.187 0.501 c -0.343 0 -0.646 -0.062 -0.912 -0.192 c -0.267 -0.129 -0.519 -0.327 -0.746 -0.601 v 0.681 h -1.764 V 36.852 h 1.764 v 3.875 c 0.237 -0.27 0.485 -0.478 0.748 -0.617 c 0.267 -0.142 0.534 -0.211 0.805 -0.211 c 0.554 0 0.975 0.189 1.265 0.565 c 0.294 0.379 0.438 0.933 0.438 1.66 v 4.926 C 39.034 47.678 38.897 48.159 38.623 48.495 z M 30.958 48.884 v -0.976 c -0.325 0.361 -0.658 0.636 -1.009 0.822 c -0.349 0.191 -0.686 0.282 -1.014 0.282 c -0.405 0 -0.705 -0.129 -0.913 -0.396 c -0.201 -0.266 -0.305 -0.658 -0.305 -1.189 v -7.422 h 1.744 v 6.809 c 0 0.211 0.037 0.362 0.107 0.457 c 0.077 0.095 0.196 0.141 0.358 0.141 c 0.128 0 0.292 -0.062 0.488 -0.188 c 0.197 -0.125 0.375 -0.283 0.542 -0.475 v -6.744 h 1.744 v 8.878 H 30.958 z M 24.916 38.6 v 10.284 h -1.968 V 38.6 h -2.034 v -1.748 h 6.036 V 38.6 H 24.916 z M 32.994 32.978 c 0 -0.001 12.08 0.018 13.514 1.45 c 1.439 1.435 1.455 8.514 1.455 8.555 c 0 0 -0.012 7.117 -1.455 8.556 C 45.074 52.969 32.994 53 32.994 53 s -12.079 -0.031 -13.516 -1.462 c -1.438 -1.435 -1.441 -8.502 -1.441 -8.556 c 0 -0.041 0.004 -7.12 1.441 -8.555 C 20.916 32.996 32.994 32.977 32.994 32.978 z M 42.52 29.255 h -1.966 v -1.08 c -0.358 0.397 -0.736 0.703 -1.13 0.909 c -0.392 0.208 -0.771 0.312 -1.14 0.312 c -0.458 0 -0.797 -0.146 -1.027 -0.437 c -0.229 -0.291 -0.345 -0.727 -0.345 -1.311 v -8.172 h 1.962 v 7.497 c 0 0.231 0.045 0.399 0.127 0.502 c 0.08 0.104 0.216 0.156 0.399 0.156 c 0.143 0 0.327 -0.069 0.548 -0.206 c 0.22 -0.137 0.423 -0.312 0.605 -0.527 v -7.422 h 1.966 V 29.255 z M 31.847 27.588 c 0.139 0.147 0.339 0.219 0.6 0.219 c 0.266 0 0.476 -0.075 0.634 -0.223 c 0.157 -0.152 0.235 -0.358 0.235 -0.618 v -5.327 c 0 -0.214 -0.08 -0.387 -0.241 -0.519 c -0.16 -0.131 -0.37 -0.196 -0.628 -0.196 c -0.241 0 -0.435 0.065 -0.586 0.196 c -0.148 0.132 -0.225 0.305 -0.225 0.519 v 5.327 C 31.636 27.233 31.708 27.439 31.847 27.588 z M 30.408 19.903 c 0.528 -0.449 1.241 -0.674 2.132 -0.674 c 0.812 0 1.48 0.237 2.001 0.711 c 0.517 0.473 0.777 1.083 0.777 1.828 v 5.051 c 0 0.836 -0.255 1.491 -0.762 1.968 c -0.513 0.476 -1.212 0.714 -2.106 0.714 c -0.858 0 -1.547 -0.246 -2.064 -0.736 c -0.513 -0.492 -0.772 -1.153 -0.772 -1.984 v -5.068 C 29.613 20.954 29.877 20.351 30.408 19.903 z M 24.262 16 h -2.229 l 2.634 8.003 v 5.252 h 2.213 v -5.5 L 29.454 16 h -2.25 l -1.366 5.298 h -0.139 L 24.262 16 z M 33 64 C 16.432 64 3 50.568 3 34 C 3 17.431 16.432 4 33 4 s 30 13.431 30 30 C 63 50.568 49.568 64 33 64 z" stroke-linecap="round" />
</g>
</svg>